name C:\Users\u0101727\Documents\MyRepositories\upper-imu-dc\Results\main_tracking\Case_22\kinematics.mot
datacolumns 10
datarows 28
range 1.37000000 1.64000000
endheader 
time	clav_prot	clav_elev	scapula_abduction	scapula_elevation	scapula_upward_rot	scapula_winging	plane_elv	shoulder_elv	axial_rot	
          1.37000000	        -22.44457631	         13.11093453	         -5.73874415	          4.47180432	         32.09206237	         -2.00135389	         12.36713730	          5.32687863	         18.22306893	
          1.38000000	        -22.47034959	         13.62493946	         -5.92928436	          4.81174049	         32.25652282	         -2.00164648	         13.84085710	          5.08990243	         16.99581937	
          1.39000000	        -22.29431219	         14.15177852	         -5.85347413	          5.19703652	         32.30529864	         -1.94907394	         15.22362018	          4.94557587	         15.85001784	
          1.40000000	        -22.04890574	         14.64676449	         -5.66628986	          5.57142966	         32.31627392	         -1.87835608	         16.51836965	          4.82890302	         14.81161938	
          1.41000000	        -21.82189901	         15.08301406	         -5.47912275	          5.90120058	         32.33194395	         -1.81190768	         17.72778113	          4.70578104	         13.89722307	
          1.42000000	        -21.65371251	         15.44887969	         -5.34752484	          6.17219845	         32.36703985	         -1.75981147	         18.85489749	          4.56633501	         13.11433675	
          1.43000000	        -21.53910654	         15.74243956	         -5.26093719	          6.38353458	         32.41980485	         -1.72376867	         19.90269174	          4.41509614	         12.46154978	
          1.44000000	        -21.45498940	         15.96899662	         -5.18460091	          6.54200573	         32.48224725	         -1.70143227	         20.87308659	          4.26159017	         11.93018993	
          1.45000000	        -21.38679627	         16.13926842	         -5.10355726	          6.65795523	         32.54618326	         -1.68911443	         21.76674250	          4.11487588	         11.50629988	
          1.46000000	        -21.33049116	         16.26660135	         -5.02308720	          6.74264369	         32.60547997	         -1.68301647	         22.58368343	          3.98171508	         11.17270115	
          1.47000000	        -21.28692559	         16.36448104	         -4.95583039	          6.80660361	         32.65674523	         -1.67990345	         23.32382804	          3.86606649	         10.91129525	
          1.48000000	        -21.25865032	         16.44527231	         -4.91463025	          6.85885207	         32.69952675	         -1.67748745	         23.98735137	          3.76885099	         10.70512481	
          1.49000000	        -21.24833715	         16.51933742	         -4.90896910	          6.90635257	         32.73620147	         -1.67464860	         24.57457712	          3.68796448	         10.54001637	
          1.50000000	        -21.25524808	         16.59344622	         -4.93839218	          6.95334136	         32.77056687	         -1.67130035	         25.08508532	          3.61965945	         10.40595046	
          1.51000000	        -21.26783497	         16.66733818	         -4.98027550	          7.00021578	         32.80309558	         -1.66741063	         25.51596594	          3.56354783	         10.29829088	
          1.52000000	        -21.25264771	         16.72963968	         -4.97238382	          7.04272131	         32.82353496	         -1.66115939	         25.85975806	          3.53047075	         10.21886035	
          1.53000000	        -21.15598456	         16.76319664	         -4.81664467	          7.07514522	         32.81384465	         -1.64909678	         26.10420552	          3.53879810	         10.17548700	
          1.54000000	        -21.10349012	         16.77974635	         -4.74896316	          7.09576179	         32.78793785	         -1.63627885	         26.24104127	          3.57208946	         10.17370592	
          1.55000000	        -21.10023248	         16.78719970	         -4.76218434	          7.10493171	         32.77098317	         -1.62917414	         26.26932577	          3.60296533	         10.21344807	
          1.56000000	        -21.16390896	         16.79191928	         -4.88234564	          7.10346700	         32.77662054	         -1.63128945	         26.17726793	          3.61451635	         10.30526669	
          1.57000000	        -21.36042922	         16.81653913	         -5.21825114	          7.09655856	         32.84096376	         -1.65197367	         25.96031545	          3.56487555	         10.45273488	
          1.58000000	        -21.48330998	         16.82290559	         -5.40375669	          7.08115142	         32.90248640	         -1.67436097	         25.62500328	          3.51831528	         10.65552671	
          1.59000000	        -21.54004839	         16.80204896	         -5.47126946	          7.05582772	         32.93435501	         -1.69078442	         25.19412855	          3.50237627	         10.90205123	
          1.60000000	        -21.55138609	         16.76138220	         -5.46453594	          7.02461344	         32.93749420	         -1.70033631	         24.70951439	          3.51547805	         11.16733430	
          1.61000000	        -21.53574186	         16.71222144	         -5.41874479	          6.99299128	         32.92022414	         -1.70400942	         24.22661843	          3.54928857	         11.41720180	
          1.62000000	        -21.50626967	         16.66404151	         -5.35882422	          6.96565832	         32.88964307	         -1.70270211	         23.80615133	          3.59771428	         11.61360627	
          1.63000000	        -21.46723154	         16.62188377	         -5.29378146	          6.94552171	         32.84835440	         -1.69645660	         23.50320418	          3.65975808	         11.72174274	
          1.64000000	        -21.41189909	         16.58614711	         -5.21170464	          6.93345696	         32.79550091	         -1.68478472	         23.35649884	          3.73772941	         11.71732800	
